<svg width="236" height="234" viewBox="0 0 236 234" fill="none" xmlns="http://www.w3.org/2000/svg">
<path fill-rule="evenodd" clip-rule="evenodd" d="M96.9443 76.9127C96.7663 76.6048 96.7652 76.2256 96.9413 75.9167L117.137 40.5046C117.52 39.8341 118.485 39.8312 118.872 40.4994L177.653 142.16C178.039 142.827 177.558 143.661 176.788 143.661H136.119C135.762 143.661 135.432 143.471 135.253 143.162L96.9443 76.9127ZM185.31 156.818C185.666 156.818 185.995 157.006 186.175 157.313L206.744 192.51C207.134 193.176 206.653 194.014 205.882 194.014L88.4497 194.09C87.6796 194.091 87.198 193.257 87.5831 192.59L107.917 157.37C108.096 157.061 108.426 156.87 108.783 156.87L185.31 156.818ZM30.1352 192.518C29.7497 193.187 30.235 194.022 31.0068 194.018L71.7725 193.802C72.1281 193.8 72.456 193.61 72.6336 193.301L110.852 127C111.031 126.691 111.03 126.31 110.852 126.001L90.5177 90.781C90.1327 90.114 89.17 90.1144 88.7854 90.7815L30.1352 192.518Z" fill="#C1322D"/>
</svg>
