<svg width="390" height="339" viewBox="0 0 390 339" fill="none" xmlns="http://www.w3.org/2000/svg">
<path opacity="0.1" fill-rule="evenodd" clip-rule="evenodd" d="M147.879 81.4916C147.701 81.1837 147.7 80.8045 147.876 80.4956L193.496 0.504588C193.879 -0.165903 194.844 -0.168763 195.231 0.499444L326.105 226.842C326.49 227.509 326.009 228.343 325.239 228.343H233.374C233.017 228.343 232.687 228.152 232.509 227.843L147.879 81.4916ZM342.533 257.171C342.889 257.171 343.218 257.36 343.398 257.667L389.862 337.17C390.251 337.837 389.771 338.674 388.999 338.675L127.543 338.844C126.773 338.844 126.292 338.011 126.677 337.344L172.609 257.787C172.788 257.478 173.117 257.287 173.474 257.287L342.533 257.171ZM0.792698 337.196C0.407196 337.865 0.892487 338.699 1.66434 338.695L93.7485 338.208C94.1041 338.206 94.432 338.015 94.6096 337.707L179.039 191.24C179.218 190.931 179.217 190.55 179.039 190.241L133.107 110.684C132.722 110.017 131.759 110.017 131.374 110.684L0.792698 337.196Z" fill="#C1322D"/>
</svg>
