<svg width="97" height="29" viewBox="0 0 97 29" fill="none" xmlns="http://www.w3.org/2000/svg">
<path fill-rule="evenodd" clip-rule="evenodd" d="M11.999 7.40055C11.821 7.09269 11.8198 6.71346 11.996 6.40455L14.7905 1.50459C15.1729 0.834102 16.1385 0.831233 16.5249 1.49944L25.9627 17.8219C26.3482 18.4886 25.8671 19.3225 25.097 19.3225H19.4699C19.1129 19.3225 18.7829 19.1321 18.6042 18.8231L11.999 7.40055ZM27.6161 21.7527C27.9717 21.7524 28.3007 21.9411 28.4801 22.2481L31.3263 27.1182C31.7158 27.7846 31.2355 28.6223 30.4636 28.6228L11.609 28.635C10.8389 28.6355 10.3573 27.8019 10.7423 27.135L13.5559 22.2617C13.7344 21.9525 14.0642 21.7619 14.4213 21.7617L27.6161 21.7527ZM0.135167 27.1155C-0.250335 27.7843 0.234952 28.6191 1.00681 28.615L6.64755 28.5851C7.00316 28.5832 7.33102 28.3926 7.50862 28.0845L14.0982 16.653C14.2765 16.3437 14.2764 15.9628 14.0979 15.6536L11.2843 10.7803C10.8992 10.1134 9.93653 10.1137 9.55192 10.7809L0.135167 27.1155Z" fill="#C1322D"/>
<path d="M45.096 12V4.968H42.504V4.128H48.696V4.968H46.104V12H45.096ZM50.3113 12V3.456H51.2953V5.784L51.2353 7.164H51.2713C51.5673 6.844 51.8913 6.576 52.2433 6.36C52.5953 6.136 52.9993 6.024 53.4553 6.024C54.1433 6.024 54.6513 6.224 54.9793 6.624C55.3073 7.024 55.4713 7.608 55.4713 8.376V12H54.4873V8.508C54.4873 7.956 54.3833 7.548 54.1753 7.284C53.9673 7.012 53.6233 6.876 53.1433 6.876C52.7993 6.876 52.4913 6.964 52.2193 7.14C51.9473 7.316 51.6393 7.58 51.2953 7.932V12H50.3113ZM60.3506 12.144C59.7666 12.144 59.2346 12.024 58.7546 11.784C58.2826 11.544 57.9066 11.196 57.6266 10.74C57.3466 10.276 57.2066 9.72 57.2066 9.072C57.2066 8.44 57.3466 7.896 57.6266 7.44C57.9066 6.984 58.2706 6.636 58.7186 6.396C59.1746 6.148 59.6626 6.024 60.1826 6.024C60.7426 6.024 61.2186 6.14 61.6106 6.372C62.0106 6.596 62.3146 6.912 62.5226 7.32C62.7386 7.728 62.8466 8.208 62.8466 8.76C62.8466 8.872 62.8426 8.98 62.8346 9.084C62.8266 9.188 62.8146 9.28 62.7986 9.36H57.8666V8.592H62.2106L61.9586 8.868C61.9586 8.18 61.7986 7.664 61.4786 7.32C61.1666 6.976 60.7426 6.804 60.2066 6.804C59.8466 6.804 59.5106 6.892 59.1986 7.068C58.8946 7.244 58.6506 7.5 58.4666 7.836C58.2826 8.172 58.1906 8.584 58.1906 9.072C58.1906 9.576 58.2906 9.996 58.4906 10.332C58.6906 10.668 58.9626 10.924 59.3066 11.1C59.6506 11.268 60.0386 11.352 60.4706 11.352C60.8226 11.352 61.1386 11.304 61.4186 11.208C61.7066 11.104 61.9826 10.968 62.2466 10.8L62.6066 11.448C62.3186 11.64 61.9866 11.804 61.6106 11.94C61.2426 12.076 60.8226 12.144 60.3506 12.144ZM42.384 27L45.036 19.128H46.164L48.816 27H47.76L46.392 22.596C46.256 22.156 46.12 21.72 45.984 21.288C45.856 20.848 45.732 20.4 45.612 19.944H45.564C45.436 20.4 45.308 20.848 45.18 21.288C45.052 21.72 44.92 22.156 44.784 22.596L43.404 27H42.384ZM43.776 24.6V23.796H47.388V24.6H43.776ZM53.1553 27.144C52.5713 27.144 52.0393 27.024 51.5593 26.784C51.0873 26.544 50.7113 26.196 50.4313 25.74C50.1513 25.276 50.0113 24.72 50.0113 24.072C50.0113 23.44 50.1513 22.896 50.4313 22.44C50.7113 21.984 51.0753 21.636 51.5233 21.396C51.9793 21.148 52.4673 21.024 52.9873 21.024C53.5473 21.024 54.0233 21.14 54.4153 21.372C54.8153 21.596 55.1193 21.912 55.3273 22.32C55.5433 22.728 55.6513 23.208 55.6513 23.76C55.6513 23.872 55.6473 23.98 55.6393 24.084C55.6313 24.188 55.6193 24.28 55.6033 24.36H50.6713V23.592H55.0153L54.7633 23.868C54.7633 23.18 54.6033 22.664 54.2833 22.32C53.9713 21.976 53.5473 21.804 53.0113 21.804C52.6513 21.804 52.3153 21.892 52.0033 22.068C51.6993 22.244 51.4553 22.5 51.2713 22.836C51.0873 23.172 50.9953 23.584 50.9953 24.072C50.9953 24.576 51.0953 24.996 51.2953 25.332C51.4953 25.668 51.7673 25.924 52.1113 26.1C52.4553 26.268 52.8433 26.352 53.2753 26.352C53.6273 26.352 53.9433 26.304 54.2233 26.208C54.5113 26.104 54.7873 25.968 55.0513 25.8L55.4113 26.448C55.1233 26.64 54.7913 26.804 54.4153 26.94C54.0473 27.076 53.6273 27.144 53.1553 27.144ZM59.6426 27.144C58.8826 27.144 58.2706 26.88 57.8066 26.352C57.3426 25.816 57.1106 25.064 57.1106 24.096C57.1106 23.464 57.2346 22.92 57.4826 22.464C57.7386 22 58.0666 21.644 58.4666 21.396C58.8746 21.148 59.3066 21.024 59.7626 21.024C60.1066 21.024 60.4186 21.092 60.6986 21.228C60.9866 21.356 61.2546 21.54 61.5026 21.78H61.5386L61.4906 20.7V18.456H62.4746V27H61.6586L61.5746 26.232H61.5386C61.3066 26.48 61.0226 26.696 60.6866 26.88C60.3586 27.056 60.0106 27.144 59.6426 27.144ZM59.8466 26.316C60.1346 26.316 60.4146 26.244 60.6866 26.1C60.9586 25.948 61.2266 25.728 61.4906 25.44V22.536C61.2266 22.288 60.9666 22.112 60.7106 22.008C60.4626 21.904 60.2106 21.852 59.9546 21.852C59.6186 21.852 59.3106 21.948 59.0306 22.14C58.7586 22.324 58.5386 22.584 58.3706 22.92C58.2106 23.248 58.1306 23.636 58.1306 24.084C58.1306 24.78 58.2826 25.328 58.5866 25.728C58.8906 26.12 59.3106 26.316 59.8466 26.316ZM67.3779 27V21.972H64.6659V21.168H68.3619V27H67.3779ZM67.7619 19.944C67.5379 19.944 67.3499 19.876 67.1979 19.74C67.0459 19.596 66.9699 19.408 66.9699 19.176C66.9699 18.944 67.0459 18.76 67.1979 18.624C67.3499 18.48 67.5379 18.408 67.7619 18.408C67.9859 18.408 68.1739 18.48 68.3259 18.624C68.4779 18.76 68.5539 18.944 68.5539 19.176C68.5539 19.408 68.4779 19.596 68.3259 19.74C68.1739 19.876 67.9859 19.944 67.7619 19.944ZM75.6533 27.144C75.0373 27.144 74.5653 26.968 74.2373 26.616C73.9093 26.256 73.7453 25.732 73.7453 25.044V19.26H71.7533V18.456H74.7293V25.116C74.7293 25.54 74.8333 25.848 75.0413 26.04C75.2493 26.232 75.5253 26.328 75.8693 26.328C76.0373 26.328 76.2093 26.308 76.3853 26.268C76.5613 26.22 76.7573 26.148 76.9733 26.052L77.2253 26.796C76.9613 26.892 76.7133 26.972 76.4813 27.036C76.2493 27.108 75.9733 27.144 75.6533 27.144ZM81.9366 27.144C81.3526 27.144 80.8206 27.024 80.3406 26.784C79.8686 26.544 79.4926 26.196 79.2126 25.74C78.9326 25.276 78.7926 24.72 78.7926 24.072C78.7926 23.44 78.9326 22.896 79.2126 22.44C79.4926 21.984 79.8566 21.636 80.3046 21.396C80.7606 21.148 81.2486 21.024 81.7686 21.024C82.3286 21.024 82.8046 21.14 83.1966 21.372C83.5966 21.596 83.9006 21.912 84.1086 22.32C84.3246 22.728 84.4326 23.208 84.4326 23.76C84.4326 23.872 84.4286 23.98 84.4206 24.084C84.4126 24.188 84.4006 24.28 84.3846 24.36H79.4526V23.592H83.7966L83.5446 23.868C83.5446 23.18 83.3846 22.664 83.0646 22.32C82.7526 21.976 82.3286 21.804 81.7926 21.804C81.4326 21.804 81.0966 21.892 80.7846 22.068C80.4806 22.244 80.2366 22.5 80.0526 22.836C79.8686 23.172 79.7766 23.584 79.7766 24.072C79.7766 24.576 79.8766 24.996 80.0766 25.332C80.2766 25.668 80.5486 25.924 80.8926 26.1C81.2366 26.268 81.6246 26.352 82.0566 26.352C82.4086 26.352 82.7246 26.304 83.0046 26.208C83.2926 26.104 83.5686 25.968 83.8326 25.8L84.1926 26.448C83.9046 26.64 83.5726 26.804 83.1966 26.94C82.8286 27.076 82.4086 27.144 81.9366 27.144Z" fill="white"/>
</svg>
